<?xml version="1.0" standalone="no"?>
<!DOCTYPE svg PUBLIC "-//W3C//DTD SVG 20010904//EN"
 "http://www.w3.org/TR/2001/REC-SVG-20010904/DTD/svg10.dtd">
<svg version="1.0" xmlns="http://www.w3.org/2000/svg"
 width="281.000000pt" height="87.000000pt" viewBox="0 0 281.000000 87.000000"
 preserveAspectRatio="xMidYMid meet">
<metadata>
Created by potrace 1.10, written by Peter Selinger 2001-2011
</metadata>
<g transform="translate(0.000000,87.000000) scale(0.100000,-0.100000)"
fill="#000000" stroke="none">
<path d="M1355 843 c-25 -6 -76 -53 -69 -65 3 -4 0 -8 -5 -8 -6 0 -11 -9 -11
-21 0 -11 -4 -18 -8 -15 -5 3 -8 -22 -8 -55 1 -54 3 -59 21 -57 18 3 20 11 21
67 0 41 5 66 12 69 7 2 12 10 12 18 0 9 5 12 10 9 6 -3 10 -2 10 3 0 15 53 35
85 33 56 -5 105 -46 105 -87 0 -13 5 -26 11 -29 6 -4 9 -23 7 -44 -2 -26 1
-36 12 -36 10 0 15 15 18 56 7 123 -90 194 -223 162z"/>
<path d="M1605 599 c7 -20 5 -20 -209 -17 l-216 3 0 -123 c0 -68 5 -132 10
-143 10 -18 23 -19 229 -19 165 0 221 3 229 13 6 7 11 35 12 62 3 230 0 245
-42 245 -15 0 -18 -5 -13 -21z m5 -100 c0 -38 -4 -68 -9 -65 -5 3 -7 24 -5 47
2 22 0 48 -6 58 -5 10 -6 21 -3 25 17 17 23 0 23 -65z m-282 39 c24 -24 14
-39 -22 -33 -48 9 -56 -12 -12 -30 54 -23 66 -62 28 -92 -33 -27 -102 -6 -102
31 0 17 25 22 35 6 8 -13 42 -13 49 -1 4 5 -11 18 -31 28 -43 20 -55 59 -28
87 19 19 66 21 83 4z m146 6 c9 -3 16 -15 16 -26 0 -16 -5 -18 -35 -12 -28 5
-35 3 -35 -9 0 -9 10 -19 23 -23 30 -9 57 -34 57 -52 0 -27 -32 -52 -65 -52
-39 0 -75 34 -57 52 9 9 15 9 24 0 14 -14 58 -16 58 -3 0 5 -17 18 -37 28 -79
38 -31 129 51 97z m94 -67 c2 -57 6 -67 21 -67 19 0 35 -23 24 -34 -4 -3 -23
-6 -44 -6 l-37 0 -4 74 c-4 92 -1 108 20 104 14 -3 18 -17 20 -71z m39 -150
c-3 -9 -54 -13 -193 -15 -103 -1 -195 0 -203 3 -40 16 27 23 206 24 150 0 194
-2 190 -12z"/>
<path d="M1422 212 c-28 -2 -42 -7 -39 -15 4 -14 76 -22 88 -10 16 16 -7 28
-49 25z"/>
<path d="M1650 210 c-17 -11 -3 -30 21 -30 11 0 22 -7 25 -15 8 -20 -13 -45
-37 -45 -11 0 -19 -6 -18 -12 1 -21 77 -81 90 -72 9 5 3 14 -17 30 l-28 23 22
21 c12 11 22 29 22 38 0 41 -51 80 -80 62z"/>
<path d="M1848 213 c-16 -4 -18 -17 -18 -94 0 -71 3 -89 14 -89 12 0 15 21 18
95 2 52 3 95 3 94 0 -1 -8 -3 -17 -6z"/>
<path d="M2047 212 c-10 -2 -16 -9 -14 -15 5 -15 89 -16 94 -1 4 12 -48 22
-80 16z"/>
<path d="M2442 212 c-13 -2 -21 -9 -19 -15 5 -15 87 -16 87 -2 0 13 -38 22
-68 17z"/>
<path d="M82 194 c-57 -39 -4 -88 101 -94 14 0 7 -40 -8 -40 -8 0 -15 -7 -15
-15 0 -21 23 -19 43 3 34 38 9 82 -47 82 -18 0 -41 7 -52 15 -18 14 -18 16 -1
29 17 13 23 36 9 36 -4 0 -18 -7 -30 -16z"/>
<path d="M160 196 c0 -13 20 -26 41 -26 15 0 10 27 -7 34 -24 9 -34 7 -34 -8z"/>
<path d="M330 190 c-39 -39 -14 -74 63 -85 37 -6 47 -11 47 -26 0 -11 -7 -19
-15 -19 -8 0 -15 -7 -15 -15 0 -21 23 -19 43 3 37 41 11 82 -50 82 -16 0 -38
7 -49 15 -19 14 -19 15 4 33 13 10 20 21 16 25 -12 11 -23 8 -44 -13z"/>
<path d="M410 196 c0 -15 38 -29 53 -19 12 7 -20 33 -40 33 -7 0 -13 -6 -13
-14z"/>
<path d="M570 120 c0 -73 3 -90 15 -90 12 0 15 17 15 90 0 73 -3 90 -15 90
-12 0 -15 -17 -15 -90z"/>
<path d="M1010 201 c0 -13 50 -100 61 -107 24 -14 21 10 -7 61 -25 48 -54 72
-54 46z"/>
<path d="M1150 132 c-52 -88 -57 -102 -38 -102 12 0 108 152 108 171 0 5 -6 9
-12 9 -7 0 -33 -35 -58 -78z"/>
<path d="M1310 120 c0 -73 3 -90 15 -90 12 0 15 17 15 90 0 73 -3 90 -15 90
-12 0 -15 -17 -15 -90z"/>
<path d="M1570 120 c0 -73 3 -90 15 -90 12 0 15 17 15 90 0 73 -3 90 -15 90
-12 0 -15 -17 -15 -90z"/>
<path d="M1970 206 c-6 -68 0 -171 10 -171 16 0 17 168 1 173 -6 2 -11 1 -11
-2z"/>
<path d="M2220 120 c0 -73 3 -90 15 -90 12 0 15 17 15 90 0 73 -3 90 -15 90
-12 0 -15 -17 -15 -90z"/>
<path d="M2350 120 c0 -73 3 -90 15 -90 12 0 15 17 15 90 0 73 -3 90 -15 90
-12 0 -15 -17 -15 -90z"/>
<path d="M2610 120 c0 -73 3 -90 15 -90 12 0 15 17 15 90 0 73 -3 90 -15 90
-12 0 -15 -17 -15 -90z"/>
<path d="M2682 198 c3 -7 15 -14 27 -16 43 -7 34 -62 -10 -62 -11 0 -19 -6
-19 -12 0 -12 72 -78 84 -78 14 0 4 23 -16 39 l-21 18 24 32 c22 30 22 34 8
59 -10 19 -24 28 -48 30 -24 3 -32 0 -29 -10z"/>
<path d="M808 129 c-24 -15 4 -25 69 -24 50 0 68 3 68 14 0 9 -17 14 -63 15
-35 0 -69 -2 -74 -5z"/>
<path d="M1384 128 c-3 -5 -2 -14 4 -20 14 -14 57 -6 57 11 0 16 -52 24 -61 9z"/>
<path d="M2057 132 c-16 -2 -27 -9 -24 -15 5 -16 47 -21 60 -8 16 16 -3 27
-36 23z"/>
<path d="M2424 128 c-3 -5 -2 -14 4 -20 14 -14 57 -6 57 11 0 16 -52 24 -61 9z"/>
<path d="M64 58 c-4 -5 0 -14 7 -19 20 -13 51 -11 47 3 -6 17 -46 29 -54 16z"/>
<path d="M314 59 c-8 -13 13 -29 38 -29 29 0 31 19 3 30 -33 12 -32 12 -41 -1z"/>
<path d="M640 46 c0 -12 11 -16 46 -16 59 0 55 24 -4 28 -33 2 -42 0 -42 -12z"/>
<path d="M1385 52 c-3 -3 -5 -9 -5 -14 0 -12 88 -10 95 2 3 6 3 10 -2 11 -45
5 -83 5 -88 1z"/>
<path d="M2425 52 c-14 -15 0 -22 40 -22 30 0 45 4 45 13 0 12 -74 20 -85 9z"/>
</g>
</svg>
